M48
; DRILL file {KiCad 8.0.5} date 2024-09-26T23:28:07-0700
; FORMAT={-:-/ absolute / metric / decimal}
; #@! TF.CreationDate,2024-09-26T23:28:07-07:00
; #@! TF.GenerationSoftware,Kicad,Pcbnew,8.0.5
; #@! TF.FileFunction,Plated,1,4,PTH
FMAT,2
METRIC
; #@! TA.AperFunction,Plated,PTH,ViaDrill
T1C0.300
; #@! TA.AperFunction,Plated,PTH,ComponentDrill
T2C0.300
; #@! TA.AperFunction,Plated,PTH,ViaDrill
T3C0.500
; #@! TA.AperFunction,Plated,PTH,ComponentDrill
T4C0.600
; #@! TA.AperFunction,Plated,PTH,ComponentDrill
T5C1.000
; #@! TA.AperFunction,Plated,PTH,ComponentDrill
T6C1.300
; #@! TA.AperFunction,Plated,PTH,ComponentDrill
T7C4.500
%
G90
G05
T1
X129.8Y-68.1
X129.8Y-69.2
X130.0Y-74.1
X133.5Y-91.1
X134.5Y-91.1
X136.12Y-97.84
X137.0Y-79.8
X138.46Y-90.329
X138.464Y-85.659
X138.469Y-87.275
X138.497Y-88.744
X138.6Y-78.6
X140.5Y-104.0
X140.7Y-72.5
X140.7Y-76.325
X140.8Y-82.8
X140.914Y-65.84
X140.965Y-77.8
X141.124Y-91.434
X141.4Y-104.0
X142.411Y-79.108
X142.5Y-84.4
X142.6Y-95.6
X142.6Y-96.5
X143.3Y-73.0
X144.285Y-96.908
X144.95Y-91.812
X145.2Y-69.19
X145.2Y-74.2
X145.23Y-67.66
X146.509Y-91.843
X146.684Y-74.225
X146.8Y-70.7
X146.812Y-63.6
X147.531Y-67.73
X147.562Y-66.83
X148.362Y-63.63
X148.4Y-69.1
X148.8Y-95.3
X149.1Y-91.6
X150.0Y-65.2
X151.0Y-66.7
X151.1Y-67.8
X151.6Y-104.3
X151.713Y-91.737
X152.07Y-65.821
X152.5Y-104.3
X152.87Y-65.821
X153.5Y-70.6
X153.8Y-66.1
X153.839Y-67.164
X154.1Y-103.8
X155.1Y-72.6
X155.463Y-65.747
X155.472Y-69.062
X155.956Y-89.12
X156.006Y-90.75
X156.8Y-76.4
X156.8Y-94.2
X157.528Y-69.77
X157.558Y-64.965
X158.4Y-66.9
X158.4Y-67.8
X158.892Y-87.133
X159.395Y-77.58
X160.56Y-79.23
X161.79Y-95.373
X162.2Y-86.5
X162.223Y-92.46
X163.11Y-102.635
X163.4Y-95.407
X163.6Y-104.135
X163.6Y-105.2
X164.3Y-84.7
X164.985Y-95.381
X165.3Y-84.7
X166.572Y-95.363
X167.523Y-85.86
X168.325Y-92.375
X168.575Y-91.225
X168.846Y-87.955
X168.95Y-90.3
X169.3Y-96.42
X169.5Y-75.5
X169.5Y-76.3
X169.7Y-98.035
X171.92Y-65.7
X174.05Y-76.2
X174.85Y-76.2
X175.65Y-76.2
X176.45Y-76.2
X176.6Y-102.34
X177.3Y-90.3
X177.54Y-105.5
X178.187Y-83.915
X180.0Y-87.2
X180.05Y-80.65
X185.649Y-91.331
X187.083Y-77.514
T2
X169.75Y-101.25
X169.75Y-102.55
X169.75Y-103.85
X169.75Y-105.15
X171.05Y-101.25
X171.05Y-102.55
X171.05Y-103.85
X171.05Y-105.15
T3
X128.5Y-97.7
X128.5Y-98.9
X128.5Y-100.1
X133.75Y-108.925
X133.75Y-110.125
X133.75Y-111.325
X142.475Y-109.075
X142.475Y-110.275
X142.475Y-111.475
X159.9Y-65.0
X159.9Y-66.3
X174.044Y-71.999
X174.4Y-65.6
X174.45Y-67.9
X175.75Y-67.9
X177.0Y-65.7
X177.05Y-67.9
X184.4Y-72.0
T5
X130.8Y-93.82
X130.8Y-96.36
X130.8Y-98.9
X130.8Y-101.44
X136.075Y-107.6
X136.075Y-110.14
X136.075Y-112.68
X140.1Y-107.625
X140.1Y-110.165
X140.1Y-112.705
X162.2Y-63.22
X162.2Y-65.76
X162.2Y-68.3
X167.3Y-63.2
X167.3Y-65.74
X167.3Y-68.28
X167.3Y-70.82
X167.3Y-73.36
X167.3Y-75.9
X171.92Y-63.2
X174.46Y-63.2
X177.0Y-63.2
T6
X131.7Y-68.6
X131.75Y-74.1
X138.2Y-68.6
X138.25Y-74.1
T7
X183.2Y-96.8
X183.2Y-104.0
T4
G00X181.67Y-79.66
M15
G01X182.77Y-79.66
M16
G05
G00X181.67Y-88.3
M15
G01X182.77Y-88.3
M16
G05
G00X186.1Y-79.66
M15
G01X186.7Y-79.66
M16
G05
G00X186.1Y-88.3
M15
G01X186.7Y-88.3
M16
G05
M30
