%TF.GenerationSoftware,KiCad,Pcbnew,8.0.5*%
%TF.CreationDate,2024-09-26T23:28:09-07:00*%
%TF.ProjectId,STM32F405 Flight Controller,53544d33-3246-4343-9035-20466c696768,rev?*%
%TF.SameCoordinates,Original*%
%TF.FileFunction,Copper,L4,Bot*%
%TF.FilePolarity,Positive*%
%FSLAX46Y46*%
G04 Gerber Fmt 4.6, Leading zero omitted, Abs format (unit mm)*
G04 Created by KiCad (PCBNEW 8.0.5) date 2024-09-26 23:28:09*
%MOMM*%
%LPD*%
G01*
G04 APERTURE LIST*
G04 Aperture macros list*
%AMRoundRect*
0 Rectangle with rounded corners*
0 $1 Rounding radius*
0 $2 $3 $4 $5 $6 $7 $8 $9 X,Y pos of 4 corners*
0 Add a 4 corners polygon primitive as box body*
4,1,4,$2,$3,$4,$5,$6,$7,$8,$9,$2,$3,0*
0 Add four circle primitives for the rounded corners*
1,1,$1+$1,$2,$3*
1,1,$1+$1,$4,$5*
1,1,$1+$1,$6,$7*
1,1,$1+$1,$8,$9*
0 Add four rect primitives between the rounded corners*
20,1,$1+$1,$2,$3,$4,$5,0*
20,1,$1+$1,$4,$5,$6,$7,0*
20,1,$1+$1,$6,$7,$8,$9,0*
20,1,$1+$1,$8,$9,$2,$3,0*%
G04 Aperture macros list end*
%TA.AperFunction,ComponentPad*%
%ADD10O,2.100000X1.000000*%
%TD*%
%TA.AperFunction,ComponentPad*%
%ADD11O,1.600000X1.000000*%
%TD*%
%TA.AperFunction,ComponentPad*%
%ADD12C,0.600000*%
%TD*%
%TA.AperFunction,SMDPad,CuDef*%
%ADD13R,2.950000X4.900000*%
%TD*%
%TA.AperFunction,ComponentPad*%
%ADD14R,2.250000X2.250000*%
%TD*%
%TA.AperFunction,ComponentPad*%
%ADD15C,2.250000*%
%TD*%
%TA.AperFunction,ComponentPad*%
%ADD16R,1.700000X1.700000*%
%TD*%
%TA.AperFunction,ComponentPad*%
%ADD17O,1.700000X1.700000*%
%TD*%
%TA.AperFunction,ComponentPad*%
%ADD18RoundRect,1.500000X1.500000X-1.500000X1.500000X1.500000X-1.500000X1.500000X-1.500000X-1.500000X0*%
%TD*%
%TA.AperFunction,ComponentPad*%
%ADD19C,6.000000*%
%TD*%
%TA.AperFunction,ViaPad*%
%ADD20C,0.700000*%
%TD*%
%TA.AperFunction,ViaPad*%
%ADD21C,1.000000*%
%TD*%
%TA.AperFunction,Conductor*%
%ADD22C,0.200000*%
%TD*%
%TA.AperFunction,Conductor*%
%ADD23C,0.300000*%
%TD*%
%TA.AperFunction,Conductor*%
%ADD24C,0.500000*%
%TD*%
G04 APERTURE END LIST*
D10*
%TO.P,J1,S1,SHIELD*%
%TO.N,unconnected-(J1-SHIELD-PadS1)_1*%
X182220000Y-88300000D03*
D11*
%TO.N,unconnected-(J1-SHIELD-PadS1)_2*%
X186400000Y-88300000D03*
D10*
%TO.N,unconnected-(J1-SHIELD-PadS1)*%
X182220000Y-79660000D03*
D11*
%TO.N,unconnected-(J1-SHIELD-PadS1)_3*%
X186400000Y-79660000D03*
%TD*%
D12*
%TO.P,U7,9,GND*%
%TO.N,GND*%
X171050000Y-105150000D03*
X171050000Y-103850000D03*
X171050000Y-102550000D03*
X171050000Y-101250000D03*
D13*
X170400000Y-103200000D03*
D12*
X169750000Y-105150000D03*
X169750000Y-103850000D03*
X169750000Y-102550000D03*
X169750000Y-101250000D03*
%TD*%
D14*
%TO.P,SW2,1,1*%
%TO.N,GND*%
X131750000Y-74100000D03*
D15*
%TO.P,SW2,2,2*%
%TO.N,NRST*%
X138250000Y-74100000D03*
%TD*%
D16*
%TO.P,J3,1,Pin_1*%
%TO.N,ESC_1*%
X136075000Y-107600000D03*
D17*
%TO.P,J3,2,Pin_2*%
%TO.N,+5V*%
X136075000Y-110140000D03*
%TO.P,J3,3,Pin_3*%
%TO.N,GND*%
X136075000Y-112680000D03*
%TD*%
D18*
%TO.P,J2,1,Pin_1*%
%TO.N,+BATT*%
X183200000Y-104000000D03*
D19*
%TO.P,J2,2,Pin_2*%
%TO.N,GND*%
X183200000Y-96800000D03*
%TD*%
D16*
%TO.P,J7,1,Pin_1*%
%TO.N,+3.3V*%
X167300000Y-75900000D03*
D17*
%TO.P,J7,2,Pin_2*%
%TO.N,SWDIO*%
X167300000Y-73360000D03*
%TO.P,J7,3,Pin_3*%
%TO.N,SWCLK*%
X167300000Y-70820000D03*
%TO.P,J7,4,Pin_4*%
%TO.N,SWO*%
X167300000Y-68280000D03*
%TO.P,J7,5,Pin_5*%
%TO.N,NRST*%
X167300000Y-65740000D03*
%TO.P,J7,6,Pin_6*%
%TO.N,GND*%
X167300000Y-63200000D03*
%TD*%
D16*
%TO.P,J4,1,Pin_1*%
%TO.N,ESC_2*%
X140100000Y-107625000D03*
D17*
%TO.P,J4,2,Pin_2*%
%TO.N,+5V*%
X140100000Y-110165000D03*
%TO.P,J4,3,Pin_3*%
%TO.N,GND*%
X140100000Y-112705000D03*
%TD*%
D16*
%TO.P,J5,1,Pin_1*%
%TO.N,ESC_3*%
X162200000Y-68300000D03*
D17*
%TO.P,J5,2,Pin_2*%
%TO.N,+5V*%
X162200000Y-65760000D03*
%TO.P,J5,3,Pin_3*%
%TO.N,GND*%
X162200000Y-63220000D03*
%TD*%
D16*
%TO.P,U6,1,TX*%
%TO.N,UART1_TX*%
X130800000Y-93820000D03*
D17*
%TO.P,U6,2,RX*%
%TO.N,UART1_RX*%
X130800000Y-96360000D03*
%TO.P,U6,3,5V*%
%TO.N,+5V*%
X130800000Y-98900000D03*
%TO.P,U6,4,GND*%
%TO.N,GND*%
X130800000Y-101440000D03*
%TD*%
D14*
%TO.P,SW1,1,1*%
%TO.N,BOOT0*%
X138200000Y-68600000D03*
D15*
%TO.P,SW1,2,2*%
%TO.N,+3.3V*%
X131700000Y-68600000D03*
%TD*%
D16*
%TO.P,J6,1,Pin_1*%
%TO.N,ESC_4*%
X171920000Y-63200000D03*
D17*
%TO.P,J6,2,Pin_2*%
%TO.N,+5V*%
X174460000Y-63200000D03*
%TO.P,J6,3,Pin_3*%
%TO.N,GND*%
X177000000Y-63200000D03*
%TD*%
D20*
%TO.N,GND*%
X146683660Y-74224580D03*
X143300000Y-73000000D03*
X180050000Y-80650000D03*
%TO.N,+3.3V*%
X146800000Y-70700000D03*
X174050000Y-76200000D03*
X146509000Y-91843250D03*
X168575000Y-91225000D03*
X129800000Y-68100000D03*
X148361763Y-63630000D03*
X155955750Y-89120000D03*
X148800000Y-95300000D03*
X169500000Y-76300000D03*
X164300000Y-84700000D03*
X138460250Y-90329250D03*
X152069553Y-65821343D03*
X145230000Y-67660237D03*
X158400000Y-67800000D03*
X156800000Y-76400000D03*
X145200000Y-74200000D03*
X136120048Y-97840097D03*
%TO.N,Net-(U7-VCC)*%
X169700000Y-98035000D03*
X163600000Y-104135000D03*
D21*
%TO.N,+5V*%
X159900000Y-65000000D03*
X177050000Y-67900000D03*
X133750000Y-110125000D03*
X128500000Y-98900000D03*
D20*
X177300000Y-90300000D03*
D21*
X142475000Y-111475000D03*
D20*
%TO.N,NRST*%
X140700000Y-72500000D03*
X155100000Y-72600000D03*
%TO.N,ESC_4*%
X153500000Y-70600000D03*
X171920000Y-65700000D03*
D21*
%TO.N,GND*%
X174043517Y-71998576D03*
D20*
X163400000Y-95406574D03*
X151713000Y-91737500D03*
D21*
X177000000Y-65700000D03*
D20*
X163110000Y-102635000D03*
X178187119Y-83915000D03*
X140700000Y-76325000D03*
X141124500Y-91434000D03*
X157557500Y-64965000D03*
X148400000Y-69100000D03*
X167523237Y-85860000D03*
X166571981Y-95362569D03*
X162223237Y-92460000D03*
X164985159Y-95380787D03*
X140965500Y-77800000D03*
X138464500Y-85659250D03*
X156005750Y-90750000D03*
X142500000Y-84400000D03*
X147561970Y-66830046D03*
X176600000Y-102339854D03*
X157527500Y-69770039D03*
X155462915Y-65747224D03*
X155471551Y-69062240D03*
X144285000Y-96908000D03*
X159395116Y-77580000D03*
X137000000Y-79800000D03*
X168950000Y-90300000D03*
X130000000Y-74100000D03*
X140800000Y-82800000D03*
X168325000Y-92375000D03*
X161789860Y-95372681D03*
X177539581Y-105500000D03*
X142411231Y-79107598D03*
X160560000Y-79230000D03*
X169300000Y-96420000D03*
X185649000Y-91330500D03*
X145200000Y-69190237D03*
X158892456Y-87133000D03*
X140914415Y-65840251D03*
X144950000Y-91812250D03*
D21*
X184400000Y-72000000D03*
D20*
X187083000Y-77514000D03*
X168846500Y-87954549D03*
X162200000Y-86500000D03*
X138600000Y-78600000D03*
X150000000Y-65200000D03*
X154100000Y-103800000D03*
X146811763Y-63600000D03*
%TO.N,SDA*%
X153839180Y-67164226D03*
X151100000Y-67800000D03*
%TO.N,Net-(U1-PC5)*%
X156800000Y-94200000D03*
X141400000Y-104000000D03*
%TO.N,BATT_SENSE*%
X142600000Y-96500000D03*
X134500000Y-91100000D03*
%TO.N,MISO*%
X151600000Y-104300000D03*
X149100000Y-91600000D03*
%TO.N,GND*%
X180000000Y-87200000D03*
%TO.N,+3.3V*%
X138497000Y-88743767D03*
%TO.N,GND*%
X142600000Y-95600000D03*
X133500000Y-91100000D03*
X152500000Y-104300000D03*
X140500000Y-104000000D03*
X138468903Y-87274847D03*
X163600000Y-105200000D03*
D21*
%TO.N,+5V*%
X128500000Y-100100000D03*
X174450000Y-67900000D03*
X133750000Y-108925000D03*
X159900000Y-66300000D03*
X142475000Y-109075000D03*
X128500000Y-97700000D03*
X175750000Y-67900000D03*
X174400000Y-65600000D03*
X142475000Y-110275000D03*
X133750000Y-111325000D03*
D20*
%TO.N,+3.3V*%
X175650000Y-76200000D03*
X152869553Y-65821343D03*
X165300000Y-84700000D03*
X147531431Y-67729530D03*
X151000000Y-66700000D03*
X153800000Y-66100000D03*
X129800000Y-69200000D03*
X174850000Y-76200000D03*
X158400000Y-66900000D03*
X169500000Y-75500000D03*
X176450000Y-76200000D03*
%TD*%
D22*
%TO.N,NRST*%
X141000000Y-72200000D02*
X140700000Y-72500000D01*
X154700000Y-72200000D02*
X141000000Y-72200000D01*
X155100000Y-72600000D02*
X154700000Y-72200000D01*
D23*
%TO.N,Net-(U7-VCC)*%
X162410000Y-104045000D02*
X162500000Y-104135000D01*
X169700000Y-98035000D02*
X168600000Y-99135000D01*
X168600000Y-99135000D02*
X162800000Y-99135000D01*
X162410000Y-99525000D02*
X162410000Y-104045000D01*
X162500000Y-104135000D02*
X163600000Y-104135000D01*
X162800000Y-99135000D02*
X162410000Y-99525000D01*
D22*
%TO.N,ESC_4*%
X171900000Y-65720000D02*
X171900000Y-69000000D01*
X171400000Y-69500000D02*
X163900000Y-69500000D01*
X171920000Y-65700000D02*
X171900000Y-65720000D01*
X171900000Y-69000000D02*
X171400000Y-69500000D01*
X162800000Y-70600000D02*
X153500000Y-70600000D01*
X163900000Y-69500000D02*
X162800000Y-70600000D01*
%TO.N,SDA*%
X151100000Y-67800000D02*
X153203406Y-67800000D01*
X153203406Y-67800000D02*
X153839180Y-67164226D01*
%TO.N,Net-(U1-PC5)*%
X143800000Y-106400000D02*
X141400000Y-104000000D01*
X153500000Y-106400000D02*
X143800000Y-106400000D01*
X157500000Y-102400000D02*
X153500000Y-106400000D01*
X157500000Y-94900000D02*
X157500000Y-102400000D01*
X156800000Y-94200000D02*
X157500000Y-94900000D01*
%TO.N,BATT_SENSE*%
X139900000Y-96500000D02*
X142600000Y-96500000D01*
X134500000Y-91100000D02*
X139900000Y-96500000D01*
%TO.N,MISO*%
X146900000Y-101200000D02*
X146900000Y-93800000D01*
X151600000Y-104300000D02*
X150000000Y-104300000D01*
X150000000Y-104300000D02*
X146900000Y-101200000D01*
X146900000Y-93800000D02*
X149100000Y-91600000D01*
D24*
%TO.N,+3.3V*%
X155975750Y-89100000D02*
X155955750Y-89120000D01*
X145169763Y-67600000D02*
X145230000Y-67660237D01*
X146456750Y-91843250D02*
X146509000Y-91843250D01*
X148400000Y-63591763D02*
X148361763Y-63630000D01*
%TD*%
M02*
