%TF.GenerationSoftware,KiCad,Pcbnew,8.0.5*%
%TF.CreationDate,2024-09-26T23:28:09-07:00*%
%TF.ProjectId,STM32F405 Flight Controller,53544d33-3246-4343-9035-20466c696768,rev?*%
%TF.SameCoordinates,Original*%
%TF.FileFunction,Paste,Top*%
%TF.FilePolarity,Positive*%
%FSLAX46Y46*%
G04 Gerber Fmt 4.6, Leading zero omitted, Abs format (unit mm)*
G04 Created by KiCad (PCBNEW 8.0.5) date 2024-09-26 23:28:09*
%MOMM*%
%LPD*%
G01*
G04 APERTURE LIST*
G04 Aperture macros list*
%AMRoundRect*
0 Rectangle with rounded corners*
0 $1 Rounding radius*
0 $2 $3 $4 $5 $6 $7 $8 $9 X,Y pos of 4 corners*
0 Add a 4 corners polygon primitive as box body*
4,1,4,$2,$3,$4,$5,$6,$7,$8,$9,$2,$3,0*
0 Add four circle primitives for the rounded corners*
1,1,$1+$1,$2,$3*
1,1,$1+$1,$4,$5*
1,1,$1+$1,$6,$7*
1,1,$1+$1,$8,$9*
0 Add four rect primitives between the rounded corners*
20,1,$1+$1,$2,$3,$4,$5,0*
20,1,$1+$1,$4,$5,$6,$7,0*
20,1,$1+$1,$6,$7,$8,$9,0*
20,1,$1+$1,$8,$9,$2,$3,0*%
G04 Aperture macros list end*
%ADD10RoundRect,0.250000X0.475000X-0.250000X0.475000X0.250000X-0.475000X0.250000X-0.475000X-0.250000X0*%
%ADD11RoundRect,0.150000X0.450000X-0.150000X0.450000X0.150000X-0.450000X0.150000X-0.450000X-0.150000X0*%
%ADD12RoundRect,0.075000X0.575000X-0.075000X0.575000X0.075000X-0.575000X0.075000X-0.575000X-0.075000X0*%
%ADD13R,0.350000X0.375000*%
%ADD14R,0.375000X0.350000*%
%ADD15RoundRect,0.225000X-0.250000X0.225000X-0.250000X-0.225000X0.250000X-0.225000X0.250000X0.225000X0*%
%ADD16RoundRect,0.225000X0.225000X0.250000X-0.225000X0.250000X-0.225000X-0.250000X0.225000X-0.250000X0*%
%ADD17RoundRect,0.200000X0.200000X0.275000X-0.200000X0.275000X-0.200000X-0.275000X0.200000X-0.275000X0*%
%ADD18RoundRect,0.218750X-0.218750X-0.256250X0.218750X-0.256250X0.218750X0.256250X-0.218750X0.256250X0*%
%ADD19RoundRect,0.200000X0.275000X-0.200000X0.275000X0.200000X-0.275000X0.200000X-0.275000X-0.200000X0*%
%ADD20R,2.600000X3.100000*%
%ADD21R,1.550000X0.600000*%
%ADD22RoundRect,0.140000X0.170000X-0.140000X0.170000X0.140000X-0.170000X0.140000X-0.170000X-0.140000X0*%
%ADD23RoundRect,0.140000X-0.170000X0.140000X-0.170000X-0.140000X0.170000X-0.140000X0.170000X0.140000X0*%
%ADD24RoundRect,0.225000X-0.225000X-0.250000X0.225000X-0.250000X0.225000X0.250000X-0.225000X0.250000X0*%
%ADD25RoundRect,0.075000X-0.700000X-0.075000X0.700000X-0.075000X0.700000X0.075000X-0.700000X0.075000X0*%
%ADD26RoundRect,0.075000X-0.075000X-0.700000X0.075000X-0.700000X0.075000X0.700000X-0.075000X0.700000X0*%
%ADD27RoundRect,0.093750X0.156250X0.093750X-0.156250X0.093750X-0.156250X-0.093750X0.156250X-0.093750X0*%
%ADD28RoundRect,0.075000X0.250000X0.075000X-0.250000X0.075000X-0.250000X-0.075000X0.250000X-0.075000X0*%
%ADD29RoundRect,0.135000X-0.185000X0.135000X-0.185000X-0.135000X0.185000X-0.135000X0.185000X0.135000X0*%
%ADD30RoundRect,0.200000X-0.200000X-0.275000X0.200000X-0.275000X0.200000X0.275000X-0.200000X0.275000X0*%
%ADD31RoundRect,0.150000X0.150000X-0.650000X0.150000X0.650000X-0.150000X0.650000X-0.150000X-0.650000X0*%
%ADD32R,0.500000X0.350000*%
%ADD33RoundRect,0.375000X-0.625000X-0.375000X0.625000X-0.375000X0.625000X0.375000X-0.625000X0.375000X0*%
%ADD34RoundRect,0.500000X-0.500000X-1.400000X0.500000X-1.400000X0.500000X1.400000X-0.500000X1.400000X0*%
%ADD35RoundRect,0.225000X0.250000X-0.225000X0.250000X0.225000X-0.250000X0.225000X-0.250000X-0.225000X0*%
%ADD36R,3.175000X4.950000*%
%ADD37R,1.400000X1.200000*%
%ADD38RoundRect,0.243750X0.456250X-0.243750X0.456250X0.243750X-0.456250X0.243750X-0.456250X-0.243750X0*%
%ADD39RoundRect,0.200000X-0.275000X0.200000X-0.275000X-0.200000X0.275000X-0.200000X0.275000X0.200000X0*%
%ADD40RoundRect,0.150000X-0.512500X-0.150000X0.512500X-0.150000X0.512500X0.150000X-0.512500X0.150000X0*%
%ADD41RoundRect,0.075000X0.075000X-0.350000X0.075000X0.350000X-0.075000X0.350000X-0.075000X-0.350000X0*%
%ADD42RoundRect,0.075000X0.350000X0.075000X-0.350000X0.075000X-0.350000X-0.075000X0.350000X-0.075000X0*%
G04 APERTURE END LIST*
D10*
%TO.C,C8*%
X143300000Y-76050000D03*
X143300000Y-74150000D03*
%TD*%
D11*
%TO.C,J1*%
X181480000Y-87180000D03*
X181480000Y-86380000D03*
D12*
X181580000Y-85230000D03*
X181580000Y-84230000D03*
X181580000Y-83730000D03*
X181580000Y-82730000D03*
D11*
X181480000Y-81580000D03*
X181480000Y-80780000D03*
X181480000Y-80780000D03*
X181480000Y-81580000D03*
D12*
X181580000Y-82230000D03*
X181580000Y-83230000D03*
X181580000Y-84730000D03*
X181580000Y-85730000D03*
D11*
X181480000Y-86380000D03*
X181480000Y-87180000D03*
%TD*%
D13*
%TO.C,U5*%
X154960000Y-68170000D03*
X155460000Y-68170000D03*
X155960000Y-68170000D03*
X156460000Y-68170000D03*
D14*
X156472500Y-67657500D03*
X156472500Y-67157500D03*
D13*
X156460000Y-66645000D03*
X155960000Y-66645000D03*
X155460000Y-66645000D03*
X154960000Y-66645000D03*
D14*
X154947500Y-67157500D03*
X154947500Y-67657500D03*
%TD*%
D15*
%TO.C,C34*%
X159980000Y-87170000D03*
X159980000Y-88720000D03*
%TD*%
%TO.C,C5*%
X154879750Y-89095500D03*
X154879750Y-90645500D03*
%TD*%
D16*
%TO.C,C33*%
X168805000Y-89000000D03*
X167255000Y-89000000D03*
%TD*%
%TO.C,C9*%
X141094554Y-85622298D03*
X139544554Y-85622298D03*
%TD*%
%TO.C,C19*%
X165786748Y-101090892D03*
X164236748Y-101090892D03*
%TD*%
D17*
%TO.C,R4*%
X171325000Y-99555000D03*
X169675000Y-99555000D03*
%TD*%
D18*
%TO.C,FB1*%
X139519500Y-88729250D03*
X141094500Y-88729250D03*
%TD*%
D19*
%TO.C,R9*%
X140045000Y-99600000D03*
X140045000Y-97950000D03*
%TD*%
D20*
%TO.C,U7*%
X170400000Y-103200000D03*
D21*
X173100000Y-105105000D03*
X173100000Y-103835000D03*
X173100000Y-102565000D03*
X173100000Y-101295000D03*
X167700000Y-101295000D03*
X167700000Y-102565000D03*
X167700000Y-103835000D03*
X167700000Y-105105000D03*
%TD*%
D22*
%TO.C,C14*%
X157557500Y-66895000D03*
X157557500Y-65935000D03*
%TD*%
D15*
%TO.C,C25*%
X174050000Y-73444788D03*
X174050000Y-74994788D03*
%TD*%
D23*
%TO.C,C29*%
X142400000Y-79920000D03*
X142400000Y-80880000D03*
%TD*%
D16*
%TO.C,C17*%
X165785000Y-102635000D03*
X164235000Y-102635000D03*
%TD*%
%TO.C,C2*%
X148400000Y-64700000D03*
X146850000Y-64700000D03*
%TD*%
D24*
%TO.C,C15*%
X174982962Y-105546201D03*
X176532962Y-105546201D03*
%TD*%
D25*
%TO.C,U1*%
X144019000Y-79258500D03*
X144019000Y-79758500D03*
X144019000Y-80258500D03*
X144019000Y-80758500D03*
X144019000Y-81258500D03*
X144019000Y-81758500D03*
X144019000Y-82258500D03*
X144019000Y-82758500D03*
X144019000Y-83258500D03*
X144019000Y-83758500D03*
X144019000Y-84258500D03*
X144019000Y-84758500D03*
X144019000Y-85258500D03*
X144019000Y-85758500D03*
X144019000Y-86258500D03*
X144019000Y-86758500D03*
D26*
X145944000Y-88683500D03*
X146444000Y-88683500D03*
X146944000Y-88683500D03*
X147444000Y-88683500D03*
X147944000Y-88683500D03*
X148444000Y-88683500D03*
X148944000Y-88683500D03*
X149444000Y-88683500D03*
X149944000Y-88683500D03*
X150444000Y-88683500D03*
X150944000Y-88683500D03*
X151444000Y-88683500D03*
X151944000Y-88683500D03*
X152444000Y-88683500D03*
X152944000Y-88683500D03*
X153444000Y-88683500D03*
D25*
X155369000Y-86758500D03*
X155369000Y-86258500D03*
X155369000Y-85758500D03*
X155369000Y-85258500D03*
X155369000Y-84758500D03*
X155369000Y-84258500D03*
X155369000Y-83758500D03*
X155369000Y-83258500D03*
X155369000Y-82758500D03*
X155369000Y-82258500D03*
X155369000Y-81758500D03*
X155369000Y-81258500D03*
X155369000Y-80758500D03*
X155369000Y-80258500D03*
X155369000Y-79758500D03*
X155369000Y-79258500D03*
D26*
X153444000Y-77333500D03*
X152944000Y-77333500D03*
X152444000Y-77333500D03*
X151944000Y-77333500D03*
X151444000Y-77333500D03*
X150944000Y-77333500D03*
X150444000Y-77333500D03*
X149944000Y-77333500D03*
X149444000Y-77333500D03*
X148944000Y-77333500D03*
X148444000Y-77333500D03*
X147944000Y-77333500D03*
X147444000Y-77333500D03*
X146944000Y-77333500D03*
X146444000Y-77333500D03*
X145944000Y-77333500D03*
%TD*%
D16*
%TO.C,C26*%
X153260000Y-90620000D03*
X151710000Y-90620000D03*
%TD*%
D27*
%TO.C,D1*%
X175447119Y-84500000D03*
D28*
X175372119Y-83962500D03*
D27*
X175447119Y-83425000D03*
X177147119Y-83425000D03*
D28*
X177222119Y-83962500D03*
D27*
X177147119Y-84500000D03*
%TD*%
D29*
%TO.C,R12*%
X148300000Y-98790000D03*
X148300000Y-99810000D03*
%TD*%
D30*
%TO.C,R5*%
X166575000Y-99535000D03*
X168225000Y-99535000D03*
%TD*%
D31*
%TO.C,U8*%
X150295000Y-102300000D03*
X151565000Y-102300000D03*
X152835000Y-102300000D03*
X154105000Y-102300000D03*
X154105000Y-95100000D03*
X152835000Y-95100000D03*
X151565000Y-95100000D03*
X150295000Y-95100000D03*
%TD*%
D23*
%TO.C,C12*%
X156500000Y-69320000D03*
X156500000Y-70280000D03*
%TD*%
D30*
%TO.C,R2*%
X184440000Y-77560000D03*
X186090000Y-77560000D03*
%TD*%
D15*
%TO.C,C1*%
X146300000Y-67650000D03*
X146300000Y-69200000D03*
%TD*%
D32*
%TO.C,U3*%
X150020000Y-66230000D03*
X150020000Y-66880000D03*
X150020000Y-67530000D03*
X150020000Y-68180000D03*
X148420000Y-68180000D03*
X148420000Y-67530000D03*
X148420000Y-66880000D03*
X148420000Y-66230000D03*
%TD*%
D24*
%TO.C,C32*%
X164927887Y-85816283D03*
X166477887Y-85816283D03*
%TD*%
D16*
%TO.C,C10*%
X141089500Y-87179250D03*
X139539500Y-87179250D03*
%TD*%
%TO.C,C7*%
X143600000Y-77800000D03*
X142050000Y-77800000D03*
%TD*%
D15*
%TO.C,C22*%
X165018318Y-96440000D03*
X165018318Y-97990000D03*
%TD*%
D17*
%TO.C,R10*%
X144235000Y-99808000D03*
X142585000Y-99808000D03*
%TD*%
D16*
%TO.C,C6*%
X146500000Y-90765750D03*
X144950000Y-90765750D03*
%TD*%
D24*
%TO.C,C11*%
X139550000Y-90300000D03*
X141100000Y-90300000D03*
%TD*%
D15*
%TO.C,C23*%
X166618318Y-96440000D03*
X166618318Y-97990000D03*
%TD*%
%TO.C,C20*%
X161818318Y-96415000D03*
X161818318Y-97965000D03*
%TD*%
D33*
%TO.C,U4*%
X176250000Y-69800000D03*
X176250000Y-72100000D03*
D34*
X182550000Y-72100000D03*
D33*
X176250000Y-74400000D03*
%TD*%
D30*
%TO.C,R8*%
X147850000Y-70800000D03*
X149500000Y-70800000D03*
%TD*%
D35*
%TO.C,C31*%
X167200000Y-92375000D03*
X167200000Y-90825000D03*
%TD*%
D36*
%TO.C,L1*%
X162707500Y-111300000D03*
X153692500Y-111300000D03*
%TD*%
D35*
%TO.C,C28*%
X140700000Y-75200000D03*
X140700000Y-73650000D03*
%TD*%
D37*
%TO.C,Y1*%
X140800000Y-79900000D03*
X138600000Y-79900000D03*
X138600000Y-81600000D03*
X140800000Y-81600000D03*
%TD*%
D38*
%TO.C,D3*%
X137505000Y-99712500D03*
X137505000Y-97837500D03*
%TD*%
D23*
%TO.C,C30*%
X137000000Y-80620000D03*
X137000000Y-81580000D03*
%TD*%
D30*
%TO.C,R1*%
X183965000Y-90220000D03*
X185615000Y-90220000D03*
%TD*%
D19*
%TO.C,R6*%
X168200000Y-98060000D03*
X168200000Y-96410000D03*
%TD*%
D24*
%TO.C,C3*%
X145150000Y-75400000D03*
X146700000Y-75400000D03*
%TD*%
D15*
%TO.C,C18*%
X165628750Y-104731250D03*
X165628750Y-106281250D03*
%TD*%
D24*
%TO.C,C4*%
X156805000Y-77580000D03*
X158355000Y-77580000D03*
%TD*%
%TO.C,C27*%
X157885000Y-79180000D03*
X159435000Y-79180000D03*
%TD*%
D39*
%TO.C,R7*%
X152500000Y-66875000D03*
X152500000Y-68525000D03*
%TD*%
D40*
%TO.C,D2*%
X173675000Y-89350000D03*
X173675000Y-91250000D03*
X175950000Y-90300000D03*
%TD*%
D30*
%TO.C,R11*%
X142585000Y-98030000D03*
X144235000Y-98030000D03*
%TD*%
D35*
%TO.C,C24*%
X174050000Y-70775000D03*
X174050000Y-69225000D03*
%TD*%
D15*
%TO.C,C21*%
X163418318Y-96440000D03*
X163418318Y-97990000D03*
%TD*%
D39*
%TO.C,R3*%
X140900000Y-66875000D03*
X140900000Y-68525000D03*
%TD*%
D24*
%TO.C,C16*%
X174997897Y-101188032D03*
X176547897Y-101188032D03*
%TD*%
D41*
%TO.C,U2*%
X162210000Y-91420000D03*
X162710000Y-91420000D03*
X163210000Y-91420000D03*
X163710000Y-91420000D03*
X164210000Y-91420000D03*
X164710000Y-91420000D03*
D42*
X165410000Y-90720000D03*
X165410000Y-90220000D03*
X165410000Y-89720000D03*
X165410000Y-89220000D03*
X165410000Y-88720000D03*
X165410000Y-88220000D03*
D41*
X164710000Y-87520000D03*
X164210000Y-87520000D03*
X163710000Y-87520000D03*
X163210000Y-87520000D03*
X162710000Y-87520000D03*
X162210000Y-87520000D03*
D42*
X161510000Y-88220000D03*
X161510000Y-88720000D03*
X161510000Y-89220000D03*
X161510000Y-89720000D03*
X161510000Y-90220000D03*
X161510000Y-90720000D03*
%TD*%
D23*
%TO.C,C13*%
X157557500Y-67885000D03*
X157557500Y-68845000D03*
%TD*%
M02*
