%TF.GenerationSoftware,KiCad,Pcbnew,8.0.5*%
%TF.CreationDate,2024-09-26T23:28:09-07:00*%
%TF.ProjectId,STM32F405 Flight Controller,53544d33-3246-4343-9035-20466c696768,rev?*%
%TF.SameCoordinates,Original*%
%TF.FileFunction,Copper,L3,Inr*%
%TF.FilePolarity,Positive*%
%FSLAX46Y46*%
G04 Gerber Fmt 4.6, Leading zero omitted, Abs format (unit mm)*
G04 Created by KiCad (PCBNEW 8.0.5) date 2024-09-26 23:28:09*
%MOMM*%
%LPD*%
G01*
G04 APERTURE LIST*
G04 Aperture macros list*
%AMRoundRect*
0 Rectangle with rounded corners*
0 $1 Rounding radius*
0 $2 $3 $4 $5 $6 $7 $8 $9 X,Y pos of 4 corners*
0 Add a 4 corners polygon primitive as box body*
4,1,4,$2,$3,$4,$5,$6,$7,$8,$9,$2,$3,0*
0 Add four circle primitives for the rounded corners*
1,1,$1+$1,$2,$3*
1,1,$1+$1,$4,$5*
1,1,$1+$1,$6,$7*
1,1,$1+$1,$8,$9*
0 Add four rect primitives between the rounded corners*
20,1,$1+$1,$2,$3,$4,$5,0*
20,1,$1+$1,$4,$5,$6,$7,0*
20,1,$1+$1,$6,$7,$8,$9,0*
20,1,$1+$1,$8,$9,$2,$3,0*%
G04 Aperture macros list end*
%TA.AperFunction,ComponentPad*%
%ADD10O,2.100000X1.000000*%
%TD*%
%TA.AperFunction,ComponentPad*%
%ADD11O,1.600000X1.000000*%
%TD*%
%TA.AperFunction,ComponentPad*%
%ADD12C,0.600000*%
%TD*%
%TA.AperFunction,ComponentPad*%
%ADD13R,2.250000X2.250000*%
%TD*%
%TA.AperFunction,ComponentPad*%
%ADD14C,2.250000*%
%TD*%
%TA.AperFunction,ComponentPad*%
%ADD15R,1.700000X1.700000*%
%TD*%
%TA.AperFunction,ComponentPad*%
%ADD16O,1.700000X1.700000*%
%TD*%
%TA.AperFunction,ComponentPad*%
%ADD17RoundRect,1.500000X1.500000X-1.500000X1.500000X1.500000X-1.500000X1.500000X-1.500000X-1.500000X0*%
%TD*%
%TA.AperFunction,ComponentPad*%
%ADD18C,6.000000*%
%TD*%
%TA.AperFunction,ViaPad*%
%ADD19C,0.700000*%
%TD*%
%TA.AperFunction,ViaPad*%
%ADD20C,1.000000*%
%TD*%
%TA.AperFunction,Conductor*%
%ADD21C,0.500000*%
%TD*%
G04 APERTURE END LIST*
D10*
%TO.N,unconnected-(J1-SHIELD-PadS1)_1*%
%TO.C,J1*%
X182220000Y-88300000D03*
D11*
%TO.N,unconnected-(J1-SHIELD-PadS1)_2*%
X186400000Y-88300000D03*
D10*
%TO.N,unconnected-(J1-SHIELD-PadS1)*%
X182220000Y-79660000D03*
D11*
%TO.N,unconnected-(J1-SHIELD-PadS1)_3*%
X186400000Y-79660000D03*
%TD*%
D12*
%TO.N,GND*%
%TO.C,U7*%
X171050000Y-105150000D03*
X171050000Y-103850000D03*
X171050000Y-102550000D03*
X171050000Y-101250000D03*
X169750000Y-105150000D03*
X169750000Y-103850000D03*
X169750000Y-102550000D03*
X169750000Y-101250000D03*
%TD*%
D13*
%TO.N,GND*%
%TO.C,SW2*%
X131750000Y-74100000D03*
D14*
%TO.N,NRST*%
X138250000Y-74100000D03*
%TD*%
D15*
%TO.N,ESC_1*%
%TO.C,J3*%
X136075000Y-107600000D03*
D16*
%TO.N,+5V*%
X136075000Y-110140000D03*
%TO.N,GND*%
X136075000Y-112680000D03*
%TD*%
D17*
%TO.N,+BATT*%
%TO.C,J2*%
X183200000Y-104000000D03*
D18*
%TO.N,GND*%
X183200000Y-96800000D03*
%TD*%
D15*
%TO.N,+3.3V*%
%TO.C,J7*%
X167300000Y-75900000D03*
D16*
%TO.N,SWDIO*%
X167300000Y-73360000D03*
%TO.N,SWCLK*%
X167300000Y-70820000D03*
%TO.N,SWO*%
X167300000Y-68280000D03*
%TO.N,NRST*%
X167300000Y-65740000D03*
%TO.N,GND*%
X167300000Y-63200000D03*
%TD*%
D15*
%TO.N,ESC_2*%
%TO.C,J4*%
X140100000Y-107625000D03*
D16*
%TO.N,+5V*%
X140100000Y-110165000D03*
%TO.N,GND*%
X140100000Y-112705000D03*
%TD*%
D15*
%TO.N,ESC_3*%
%TO.C,J5*%
X162200000Y-68300000D03*
D16*
%TO.N,+5V*%
X162200000Y-65760000D03*
%TO.N,GND*%
X162200000Y-63220000D03*
%TD*%
D15*
%TO.N,UART1_TX*%
%TO.C,U6*%
X130800000Y-93820000D03*
D16*
%TO.N,UART1_RX*%
X130800000Y-96360000D03*
%TO.N,+5V*%
X130800000Y-98900000D03*
%TO.N,GND*%
X130800000Y-101440000D03*
%TD*%
D13*
%TO.N,BOOT0*%
%TO.C,SW1*%
X138200000Y-68600000D03*
D14*
%TO.N,+3.3V*%
X131700000Y-68600000D03*
%TD*%
D15*
%TO.N,ESC_4*%
%TO.C,J6*%
X171920000Y-63200000D03*
D16*
%TO.N,+5V*%
X174460000Y-63200000D03*
%TO.N,GND*%
X177000000Y-63200000D03*
%TD*%
D19*
%TO.N,GND*%
X146683660Y-74224580D03*
X143300000Y-73000000D03*
X180050000Y-80650000D03*
%TO.N,+3.3V*%
X146800000Y-70700000D03*
X174050000Y-76200000D03*
X146509000Y-91843250D03*
X168575000Y-91225000D03*
X129800000Y-68100000D03*
X148361763Y-63630000D03*
X155955750Y-89120000D03*
X148800000Y-95300000D03*
X169500000Y-76300000D03*
X164300000Y-84700000D03*
X138460250Y-90329250D03*
X152069553Y-65821343D03*
X145230000Y-67660237D03*
X158400000Y-67800000D03*
X156800000Y-76400000D03*
X145200000Y-74200000D03*
X136120048Y-97840097D03*
%TO.N,Net-(U7-VCC)*%
X169700000Y-98035000D03*
X163600000Y-104135000D03*
D20*
%TO.N,+5V*%
X159900000Y-65000000D03*
X177050000Y-67900000D03*
X133750000Y-110125000D03*
X128500000Y-98900000D03*
D19*
X177300000Y-90300000D03*
D20*
X142475000Y-111475000D03*
D19*
%TO.N,NRST*%
X140700000Y-72500000D03*
X155100000Y-72600000D03*
%TO.N,ESC_4*%
X153500000Y-70600000D03*
X171920000Y-65700000D03*
D20*
%TO.N,GND*%
X174043517Y-71998576D03*
D19*
X163400000Y-95406574D03*
X151713000Y-91737500D03*
D20*
X177000000Y-65700000D03*
D19*
X163110000Y-102635000D03*
X178187119Y-83915000D03*
X140700000Y-76325000D03*
X141124500Y-91434000D03*
X157557500Y-64965000D03*
X148400000Y-69100000D03*
X167523237Y-85860000D03*
X166571981Y-95362569D03*
X162223237Y-92460000D03*
X164985159Y-95380787D03*
X140965500Y-77800000D03*
X138464500Y-85659250D03*
X156005750Y-90750000D03*
X142500000Y-84400000D03*
X147561970Y-66830046D03*
X176600000Y-102339854D03*
X157527500Y-69770039D03*
X155462915Y-65747224D03*
X155471551Y-69062240D03*
X144285000Y-96908000D03*
X159395116Y-77580000D03*
X137000000Y-79800000D03*
X168950000Y-90300000D03*
X130000000Y-74100000D03*
X140800000Y-82800000D03*
X168325000Y-92375000D03*
X161789860Y-95372681D03*
X177539581Y-105500000D03*
X142411231Y-79107598D03*
X160560000Y-79230000D03*
X169300000Y-96420000D03*
X185649000Y-91330500D03*
X145200000Y-69190237D03*
X158892456Y-87133000D03*
X140914415Y-65840251D03*
X144950000Y-91812250D03*
D20*
X184400000Y-72000000D03*
D19*
X187083000Y-77514000D03*
X168846500Y-87954549D03*
X162200000Y-86500000D03*
X138600000Y-78600000D03*
X150000000Y-65200000D03*
X154100000Y-103800000D03*
X146811763Y-63600000D03*
%TO.N,SDA*%
X153839180Y-67164226D03*
X151100000Y-67800000D03*
%TO.N,Net-(U1-PC5)*%
X156800000Y-94200000D03*
X141400000Y-104000000D03*
%TO.N,BATT_SENSE*%
X142600000Y-96500000D03*
X134500000Y-91100000D03*
%TO.N,MISO*%
X151600000Y-104300000D03*
X149100000Y-91600000D03*
%TO.N,GND*%
X180000000Y-87200000D03*
%TO.N,+3.3V*%
X138497000Y-88743767D03*
%TO.N,GND*%
X142600000Y-95600000D03*
X133500000Y-91100000D03*
X152500000Y-104300000D03*
X140500000Y-104000000D03*
X138468903Y-87274847D03*
X163600000Y-105200000D03*
D20*
%TO.N,+5V*%
X128500000Y-100100000D03*
X174450000Y-67900000D03*
X133750000Y-108925000D03*
X159900000Y-66300000D03*
X142475000Y-109075000D03*
X128500000Y-97700000D03*
X175750000Y-67900000D03*
X174400000Y-65600000D03*
X142475000Y-110275000D03*
X133750000Y-111325000D03*
D19*
%TO.N,+3.3V*%
X175650000Y-76200000D03*
X152869553Y-65821343D03*
X165300000Y-84700000D03*
X147531431Y-67729530D03*
X151000000Y-66700000D03*
X153800000Y-66100000D03*
X129800000Y-69200000D03*
X174850000Y-76200000D03*
X158400000Y-66900000D03*
X169500000Y-75500000D03*
X176450000Y-76200000D03*
%TD*%
D21*
%TO.N,+3.3V*%
X146698870Y-73200000D02*
X145649435Y-72150565D01*
X149100000Y-73200000D02*
X146698870Y-73200000D01*
X149400000Y-73500000D02*
X149100000Y-73200000D01*
X158300000Y-73500000D02*
X149400000Y-73500000D01*
X158400000Y-73600000D02*
X158300000Y-73500000D01*
X145200000Y-72600000D02*
X145649435Y-72150565D01*
X145200000Y-74200000D02*
X145200000Y-72600000D01*
%TO.N,+5V*%
X158000000Y-104500000D02*
X158000000Y-95900000D01*
X173600000Y-94000000D02*
X177300000Y-90300000D01*
X149500000Y-116700000D02*
X149500000Y-113000000D01*
X149500000Y-113000000D02*
X158000000Y-104500000D01*
X135600000Y-116700000D02*
X149500000Y-116700000D01*
X159900000Y-94000000D02*
X173600000Y-94000000D01*
X132000000Y-113100000D02*
X135600000Y-116700000D01*
X158000000Y-95900000D02*
X159900000Y-94000000D01*
X132000000Y-110200000D02*
X132000000Y-113100000D01*
X133675000Y-110200000D02*
X133750000Y-110125000D01*
X132000000Y-110200000D02*
X133675000Y-110200000D01*
X159900000Y-60100000D02*
X159900000Y-65000000D01*
X179700000Y-61000000D02*
X178500000Y-59800000D01*
X178500000Y-59800000D02*
X160200000Y-59800000D01*
X182500000Y-66000000D02*
X179700000Y-66000000D01*
X160200000Y-59800000D02*
X159900000Y-60100000D01*
X184400000Y-67900000D02*
X182500000Y-66000000D01*
X179700000Y-66000000D02*
X179700000Y-61000000D01*
X185600000Y-69100000D02*
X184400000Y-67900000D01*
X184900000Y-76300000D02*
X185600000Y-75600000D01*
X179100000Y-76300000D02*
X184900000Y-76300000D01*
X185600000Y-75600000D02*
X185600000Y-69100000D01*
X179100000Y-88500000D02*
X179100000Y-76300000D01*
X177300000Y-90300000D02*
X179100000Y-88500000D01*
%TO.N,+3.3V*%
X146800000Y-71000000D02*
X145649435Y-72150565D01*
X146800000Y-70700000D02*
X146800000Y-71000000D01*
X157700000Y-86400000D02*
X157700000Y-89100000D01*
X171300000Y-76300000D02*
X171300000Y-76900000D01*
X136100000Y-93100000D02*
X136100000Y-97820049D01*
X148800000Y-93000000D02*
X146400000Y-93000000D01*
X162000000Y-76400000D02*
X158300000Y-76400000D01*
X164300000Y-83800000D02*
X160300000Y-83800000D01*
X157700000Y-92000000D02*
X156700000Y-93000000D01*
X136100000Y-97820049D02*
X136120048Y-97840097D01*
X155975750Y-89100000D02*
X155955750Y-89120000D01*
X157700000Y-89100000D02*
X157700000Y-92000000D01*
X156700000Y-93000000D02*
X148800000Y-93000000D01*
X164300000Y-78300000D02*
X164300000Y-83800000D01*
X143500000Y-67500000D02*
X143500000Y-63700000D01*
X143500000Y-63700000D02*
X133300000Y-63700000D01*
X148300000Y-63568237D02*
X148361763Y-63630000D01*
X138500000Y-93000000D02*
X136200000Y-93000000D01*
X157700000Y-89100000D02*
X155975750Y-89100000D01*
X158300000Y-76400000D02*
X158400000Y-76300000D01*
X144800000Y-62400000D02*
X148300000Y-62400000D01*
X169500000Y-76300000D02*
X171300000Y-76300000D01*
X136200000Y-93000000D02*
X136100000Y-93100000D01*
X170800000Y-84600000D02*
X170000000Y-83800000D01*
X151800000Y-62400000D02*
X152100000Y-62700000D01*
X168575000Y-91225000D02*
X168700000Y-91100000D01*
X168700000Y-91100000D02*
X170800000Y-91100000D01*
X171300000Y-76900000D02*
X169900000Y-78300000D01*
X164300000Y-83800000D02*
X164300000Y-84700000D01*
X145649435Y-72150565D02*
X143500000Y-70001129D01*
X160300000Y-83800000D02*
X157700000Y-86400000D01*
X146400000Y-93000000D02*
X138500000Y-93000000D01*
X148300000Y-62400000D02*
X151800000Y-62400000D01*
X152100000Y-62700000D02*
X152100000Y-65790896D01*
X152100000Y-65790896D02*
X152069553Y-65821343D01*
X173950000Y-76300000D02*
X174050000Y-76200000D01*
X169900000Y-78300000D02*
X164300000Y-78300000D01*
X146400000Y-91952250D02*
X146509000Y-91843250D01*
X143500000Y-63700000D02*
X144800000Y-62400000D01*
X133300000Y-63700000D02*
X129800000Y-67200000D01*
X164300000Y-78300000D02*
X163900000Y-78300000D01*
X158400000Y-76300000D02*
X158400000Y-73600000D01*
X148300000Y-62400000D02*
X148300000Y-63568237D01*
X170800000Y-91100000D02*
X170800000Y-84600000D01*
X143500000Y-70001129D02*
X143500000Y-67500000D01*
X170000000Y-83800000D02*
X164300000Y-83800000D01*
X171300000Y-76300000D02*
X173950000Y-76300000D01*
X158300000Y-76400000D02*
X156800000Y-76400000D01*
X145069763Y-67500000D02*
X145230000Y-67660237D01*
X129800000Y-67200000D02*
X129800000Y-68100000D01*
X158400000Y-73600000D02*
X158400000Y-67800000D01*
X163900000Y-78300000D02*
X162000000Y-76400000D01*
X146400000Y-93000000D02*
X146400000Y-91952250D01*
X143500000Y-67500000D02*
X145069763Y-67500000D01*
X148800000Y-93000000D02*
X148800000Y-95300000D01*
%TO.N,+5V*%
X127100000Y-98900000D02*
X127100000Y-105300000D01*
X127100000Y-105300000D02*
X132000000Y-110200000D01*
X142475000Y-116675000D02*
X142475000Y-111475000D01*
X184400000Y-67900000D02*
X177050000Y-67900000D01*
X128500000Y-98900000D02*
X127100000Y-98900000D01*
%TO.N,+3.3V*%
X131665500Y-68565500D02*
X131700000Y-68600000D01*
X138500000Y-90369000D02*
X138460250Y-90329250D01*
X138500000Y-93000000D02*
X138500000Y-90369000D01*
%TD*%
M02*
