%TF.GenerationSoftware,KiCad,Pcbnew,8.0.5*%
%TF.CreationDate,2024-09-26T23:28:09-07:00*%
%TF.ProjectId,STM32F405 Flight Controller,53544d33-3246-4343-9035-20466c696768,rev?*%
%TF.SameCoordinates,Original*%
%TF.FileFunction,Legend,Top*%
%TF.FilePolarity,Positive*%
%FSLAX46Y46*%
G04 Gerber Fmt 4.6, Leading zero omitted, Abs format (unit mm)*
G04 Created by KiCad (PCBNEW 8.0.5) date 2024-09-26 23:28:09*
%MOMM*%
%LPD*%
G01*
G04 APERTURE LIST*
%ADD10C,0.150000*%
%ADD11C,0.120000*%
%ADD12C,0.200000*%
%ADD13C,0.127000*%
G04 APERTURE END LIST*
D10*
X130708207Y-104669819D02*
X130374874Y-104193628D01*
X130136779Y-104669819D02*
X130136779Y-103669819D01*
X130136779Y-103669819D02*
X130517731Y-103669819D01*
X130517731Y-103669819D02*
X130612969Y-103717438D01*
X130612969Y-103717438D02*
X130660588Y-103765057D01*
X130660588Y-103765057D02*
X130708207Y-103860295D01*
X130708207Y-103860295D02*
X130708207Y-104003152D01*
X130708207Y-104003152D02*
X130660588Y-104098390D01*
X130660588Y-104098390D02*
X130612969Y-104146009D01*
X130612969Y-104146009D02*
X130517731Y-104193628D01*
X130517731Y-104193628D02*
X130136779Y-104193628D01*
X131041541Y-103669819D02*
X131708207Y-104669819D01*
X131708207Y-103669819D02*
X131041541Y-104669819D01*
X170422200Y-69710839D02*
X170469819Y-69567982D01*
X170469819Y-69567982D02*
X170469819Y-69329887D01*
X170469819Y-69329887D02*
X170422200Y-69234649D01*
X170422200Y-69234649D02*
X170374580Y-69187030D01*
X170374580Y-69187030D02*
X170279342Y-69139411D01*
X170279342Y-69139411D02*
X170184104Y-69139411D01*
X170184104Y-69139411D02*
X170088866Y-69187030D01*
X170088866Y-69187030D02*
X170041247Y-69234649D01*
X170041247Y-69234649D02*
X169993628Y-69329887D01*
X169993628Y-69329887D02*
X169946009Y-69520363D01*
X169946009Y-69520363D02*
X169898390Y-69615601D01*
X169898390Y-69615601D02*
X169850771Y-69663220D01*
X169850771Y-69663220D02*
X169755533Y-69710839D01*
X169755533Y-69710839D02*
X169660295Y-69710839D01*
X169660295Y-69710839D02*
X169565057Y-69663220D01*
X169565057Y-69663220D02*
X169517438Y-69615601D01*
X169517438Y-69615601D02*
X169469819Y-69520363D01*
X169469819Y-69520363D02*
X169469819Y-69282268D01*
X169469819Y-69282268D02*
X169517438Y-69139411D01*
X169469819Y-68806077D02*
X170469819Y-68567982D01*
X170469819Y-68567982D02*
X169755533Y-68377506D01*
X169755533Y-68377506D02*
X170469819Y-68187030D01*
X170469819Y-68187030D02*
X169469819Y-67948935D01*
X170469819Y-67567982D02*
X169469819Y-67567982D01*
X169469819Y-67567982D02*
X169469819Y-67329887D01*
X169469819Y-67329887D02*
X169517438Y-67187030D01*
X169517438Y-67187030D02*
X169612676Y-67091792D01*
X169612676Y-67091792D02*
X169707914Y-67044173D01*
X169707914Y-67044173D02*
X169898390Y-66996554D01*
X169898390Y-66996554D02*
X170041247Y-66996554D01*
X170041247Y-66996554D02*
X170231723Y-67044173D01*
X170231723Y-67044173D02*
X170326961Y-67091792D01*
X170326961Y-67091792D02*
X170422200Y-67187030D01*
X170422200Y-67187030D02*
X170469819Y-67329887D01*
X170469819Y-67329887D02*
X170469819Y-67567982D01*
D11*
%TO.C,C8*%
X142565000Y-75361252D02*
X142565000Y-74838748D01*
X144035000Y-75361252D02*
X144035000Y-74838748D01*
%TO.C,J1*%
X183545000Y-88680000D02*
X185325000Y-88680000D01*
X180625000Y-86780000D02*
X180625000Y-87580000D01*
X183545000Y-79280000D02*
X185325000Y-79280000D01*
D12*
%TO.C,U5*%
X154990000Y-68967500D02*
G75*
G02*
X154790000Y-68967500I-100000J0D01*
G01*
X154790000Y-68967500D02*
G75*
G02*
X154990000Y-68967500I100000J0D01*
G01*
D11*
%TO.C,C34*%
X159470000Y-87804420D02*
X159470000Y-88085580D01*
X160490000Y-87804420D02*
X160490000Y-88085580D01*
%TO.C,C5*%
X154369750Y-89729920D02*
X154369750Y-90011080D01*
X155389750Y-89729920D02*
X155389750Y-90011080D01*
%TO.C,C33*%
X168170580Y-88490000D02*
X167889420Y-88490000D01*
X168170580Y-89510000D02*
X167889420Y-89510000D01*
%TO.C,C9*%
X140460134Y-85112298D02*
X140178974Y-85112298D01*
X140460134Y-86132298D02*
X140178974Y-86132298D01*
%TO.C,C19*%
X165152328Y-100580892D02*
X164871168Y-100580892D01*
X165152328Y-101600892D02*
X164871168Y-101600892D01*
%TO.C,R4*%
X170737258Y-99032500D02*
X170262742Y-99032500D01*
X170737258Y-100077500D02*
X170262742Y-100077500D01*
%TO.C,FB1*%
X140144221Y-88219250D02*
X140469779Y-88219250D01*
X140144221Y-89239250D02*
X140469779Y-89239250D01*
%TO.C,R9*%
X139522500Y-99012258D02*
X139522500Y-98537742D01*
X140567500Y-99012258D02*
X140567500Y-98537742D01*
D10*
%TO.C,U7*%
X172475000Y-100625000D02*
X168325000Y-100625000D01*
X172475000Y-105775000D02*
X168325000Y-105775000D01*
D11*
X173315000Y-106005000D02*
X172835000Y-106005000D01*
X173075000Y-105675000D01*
X173315000Y-106005000D01*
G36*
X173315000Y-106005000D02*
G01*
X172835000Y-106005000D01*
X173075000Y-105675000D01*
X173315000Y-106005000D01*
G37*
%TO.C,SW2*%
X131900000Y-72250000D02*
X131900000Y-72710000D01*
X131900000Y-72710000D02*
X130900000Y-72710000D01*
X131900000Y-75490000D02*
X131900000Y-75950000D01*
X131900000Y-75950000D02*
X138100000Y-75950000D01*
X138100000Y-72250000D02*
X131900000Y-72250000D01*
X138100000Y-72250000D02*
X138100000Y-72710000D01*
X138100000Y-75490000D02*
X138100000Y-75950000D01*
X133500000Y-73550000D02*
X136350000Y-73550000D01*
X136350000Y-74600000D01*
X133500000Y-74600000D01*
X133500000Y-73550000D01*
%TO.C,C14*%
X157197500Y-66522836D02*
X157197500Y-66307164D01*
X157917500Y-66522836D02*
X157917500Y-66307164D01*
%TO.C,C25*%
X173540000Y-74079208D02*
X173540000Y-74360368D01*
X174560000Y-74079208D02*
X174560000Y-74360368D01*
%TO.C,C29*%
X142040000Y-80292164D02*
X142040000Y-80507836D01*
X142760000Y-80292164D02*
X142760000Y-80507836D01*
%TO.C,C17*%
X165150580Y-102125000D02*
X164869420Y-102125000D01*
X165150580Y-103145000D02*
X164869420Y-103145000D01*
%TO.C,C2*%
X147765580Y-64190000D02*
X147484420Y-64190000D01*
X147765580Y-65210000D02*
X147484420Y-65210000D01*
%TO.C,C15*%
X175617382Y-105036201D02*
X175898542Y-105036201D01*
X175617382Y-106056201D02*
X175898542Y-106056201D01*
%TO.C,U1*%
X144584000Y-77898500D02*
X144584000Y-78848500D01*
X144584000Y-88118500D02*
X144584000Y-87168500D01*
X145534000Y-77898500D02*
X144584000Y-77898500D01*
X145534000Y-88118500D02*
X144584000Y-88118500D01*
X153854000Y-77898500D02*
X154804000Y-77898500D01*
X153854000Y-88118500D02*
X154804000Y-88118500D01*
X154804000Y-77898500D02*
X154804000Y-78848500D01*
X154804000Y-88118500D02*
X154804000Y-87168500D01*
X143969000Y-78848500D02*
X143629000Y-78378500D01*
X144309000Y-78378500D01*
X143969000Y-78848500D01*
G36*
X143969000Y-78848500D02*
G01*
X143629000Y-78378500D01*
X144309000Y-78378500D01*
X143969000Y-78848500D01*
G37*
%TO.C,C26*%
X152625580Y-90110000D02*
X152344420Y-90110000D01*
X152625580Y-91130000D02*
X152344420Y-91130000D01*
%TO.C,D1*%
X177067119Y-85232500D02*
X177067119Y-84952500D01*
X177347119Y-84952500D01*
X177067119Y-85232500D01*
G36*
X177067119Y-85232500D02*
G01*
X177067119Y-84952500D01*
X177347119Y-84952500D01*
X177067119Y-85232500D01*
G37*
X175647119Y-84952500D02*
X176697119Y-84952500D01*
X175647119Y-82972500D02*
X176947119Y-82972500D01*
%TO.C,R12*%
X147920000Y-99146359D02*
X147920000Y-99453641D01*
X148680000Y-99146359D02*
X148680000Y-99453641D01*
%TO.C,J3*%
X134745000Y-108870000D02*
X134745000Y-114010000D01*
X134745000Y-108870000D02*
X137405000Y-108870000D01*
X134745000Y-114010000D02*
X137405000Y-114010000D01*
X136075000Y-106270000D02*
X137405000Y-106270000D01*
X137405000Y-106270000D02*
X137405000Y-107600000D01*
X137405000Y-108870000D02*
X137405000Y-114010000D01*
%TO.C,R5*%
X167162742Y-99012500D02*
X167637258Y-99012500D01*
X167162742Y-100057500D02*
X167637258Y-100057500D01*
%TO.C,U8*%
X149475000Y-95975000D02*
X149735000Y-95975000D01*
X149475000Y-98700000D02*
X149475000Y-95975000D01*
X149475000Y-98700000D02*
X149475000Y-101425000D01*
X149475000Y-101425000D02*
X149735000Y-101425000D01*
X154925000Y-95975000D02*
X154665000Y-95975000D01*
X154925000Y-98700000D02*
X154925000Y-95975000D01*
X154925000Y-98700000D02*
X154925000Y-101425000D01*
X154925000Y-101425000D02*
X154665000Y-101425000D01*
X149735000Y-102207500D02*
X149405000Y-102447500D01*
X149405000Y-101967500D01*
X149735000Y-102207500D01*
G36*
X149735000Y-102207500D02*
G01*
X149405000Y-102447500D01*
X149405000Y-101967500D01*
X149735000Y-102207500D01*
G37*
%TO.C,C12*%
X156140000Y-69692164D02*
X156140000Y-69907836D01*
X156860000Y-69692164D02*
X156860000Y-69907836D01*
%TO.C,R2*%
X185027742Y-77037500D02*
X185502258Y-77037500D01*
X185027742Y-78082500D02*
X185502258Y-78082500D01*
%TO.C,C1*%
X145790000Y-68284420D02*
X145790000Y-68565580D01*
X146810000Y-68284420D02*
X146810000Y-68565580D01*
D13*
%TO.C,U3*%
X148220000Y-65855000D02*
X150220000Y-65855000D01*
X148220000Y-68555000D02*
X150220000Y-68555000D01*
D12*
X151015000Y-66055000D02*
G75*
G02*
X150815000Y-66055000I-100000J0D01*
G01*
X150815000Y-66055000D02*
G75*
G02*
X151015000Y-66055000I100000J0D01*
G01*
D11*
%TO.C,C32*%
X165562307Y-85306283D02*
X165843467Y-85306283D01*
X165562307Y-86326283D02*
X165843467Y-86326283D01*
%TO.C,C10*%
X140455080Y-86669250D02*
X140173920Y-86669250D01*
X140455080Y-87689250D02*
X140173920Y-87689250D01*
%TO.C,C7*%
X142965580Y-77290000D02*
X142684420Y-77290000D01*
X142965580Y-78310000D02*
X142684420Y-78310000D01*
%TO.C,C22*%
X164508318Y-97074420D02*
X164508318Y-97355580D01*
X165528318Y-97074420D02*
X165528318Y-97355580D01*
%TO.C,J2*%
X179050000Y-92550000D02*
X179050000Y-105400000D01*
X179050000Y-105400000D02*
X181600000Y-108250000D01*
X181600000Y-108250000D02*
X184750000Y-108250000D01*
X184750000Y-108250000D02*
X187350000Y-105400000D01*
X187350000Y-92550000D02*
X179050000Y-92550000D01*
X187350000Y-105400000D02*
X187350000Y-92550000D01*
%TO.C,R10*%
X143647258Y-99285500D02*
X143172742Y-99285500D01*
X143647258Y-100330500D02*
X143172742Y-100330500D01*
%TO.C,C6*%
X145865580Y-90255750D02*
X145584420Y-90255750D01*
X145865580Y-91275750D02*
X145584420Y-91275750D01*
%TO.C,C11*%
X140184420Y-89790000D02*
X140465580Y-89790000D01*
X140184420Y-90810000D02*
X140465580Y-90810000D01*
%TO.C,C23*%
X166108318Y-97074420D02*
X166108318Y-97355580D01*
X167128318Y-97074420D02*
X167128318Y-97355580D01*
%TO.C,C20*%
X161308318Y-97049420D02*
X161308318Y-97330580D01*
X162328318Y-97049420D02*
X162328318Y-97330580D01*
%TO.C,U4*%
X177550000Y-68690000D02*
X181310000Y-68690000D01*
X177550000Y-75510000D02*
X181310000Y-75510000D01*
X181310000Y-68690000D02*
X181310000Y-69950000D01*
X181310000Y-75510000D02*
X181310000Y-74250000D01*
X176270000Y-68790000D02*
X176030000Y-68460000D01*
X176510000Y-68460000D01*
X176270000Y-68790000D01*
G36*
X176270000Y-68790000D02*
G01*
X176030000Y-68460000D01*
X176510000Y-68460000D01*
X176270000Y-68790000D01*
G37*
%TO.C,R8*%
X148437742Y-70277500D02*
X148912258Y-70277500D01*
X148437742Y-71322500D02*
X148912258Y-71322500D01*
%TO.C,C31*%
X166690000Y-91740580D02*
X166690000Y-91459420D01*
X167710000Y-91740580D02*
X167710000Y-91459420D01*
%TO.C,J7*%
X165970000Y-74630000D02*
X165970000Y-61870000D01*
X165970000Y-77230000D02*
X165970000Y-75900000D01*
X167300000Y-77230000D02*
X165970000Y-77230000D01*
X168630000Y-61870000D02*
X165970000Y-61870000D01*
X168630000Y-74630000D02*
X165970000Y-74630000D01*
X168630000Y-74630000D02*
X168630000Y-61870000D01*
%TO.C,J4*%
X138770000Y-108895000D02*
X138770000Y-114035000D01*
X138770000Y-108895000D02*
X141430000Y-108895000D01*
X138770000Y-114035000D02*
X141430000Y-114035000D01*
X140100000Y-106295000D02*
X141430000Y-106295000D01*
X141430000Y-106295000D02*
X141430000Y-107625000D01*
X141430000Y-108895000D02*
X141430000Y-114035000D01*
%TO.C,J5*%
X160870000Y-67030000D02*
X160870000Y-61890000D01*
X160870000Y-69630000D02*
X160870000Y-68300000D01*
X162200000Y-69630000D02*
X160870000Y-69630000D01*
X163530000Y-61890000D02*
X160870000Y-61890000D01*
X163530000Y-67030000D02*
X160870000Y-67030000D01*
X163530000Y-67030000D02*
X163530000Y-61890000D01*
%TO.C,L1*%
X153020000Y-106120000D02*
X153020000Y-108525000D01*
X153020000Y-116480000D02*
X153020000Y-114075000D01*
X163380000Y-106120000D02*
X153020000Y-106120000D01*
X163380000Y-108525000D02*
X163380000Y-106120000D01*
X163380000Y-114075000D02*
X163380000Y-116480000D01*
X163380000Y-116480000D02*
X153020000Y-116480000D01*
%TO.C,C28*%
X140190000Y-74565580D02*
X140190000Y-74284420D01*
X141210000Y-74565580D02*
X141210000Y-74284420D01*
%TO.C,U6*%
X129470000Y-92490000D02*
X130800000Y-92490000D01*
X129470000Y-93820000D02*
X129470000Y-92490000D01*
X129470000Y-95090000D02*
X129470000Y-102770000D01*
X129470000Y-95090000D02*
X132130000Y-95090000D01*
X129470000Y-102770000D02*
X132130000Y-102770000D01*
X132130000Y-95090000D02*
X132130000Y-102770000D01*
D12*
%TO.C,Y1*%
X140900000Y-78700000D02*
G75*
G02*
X140700000Y-78700000I-100000J0D01*
G01*
X140700000Y-78700000D02*
G75*
G02*
X140900000Y-78700000I100000J0D01*
G01*
D11*
%TO.C,D3*%
X136545000Y-97775000D02*
X136545000Y-100460000D01*
X136545000Y-100460000D02*
X138465000Y-100460000D01*
X138465000Y-100460000D02*
X138465000Y-97775000D01*
%TO.C,C30*%
X136640000Y-80992164D02*
X136640000Y-81207836D01*
X137360000Y-80992164D02*
X137360000Y-81207836D01*
%TO.C,R1*%
X184552742Y-89697500D02*
X185027258Y-89697500D01*
X184552742Y-90742500D02*
X185027258Y-90742500D01*
%TO.C,R6*%
X167677500Y-97472258D02*
X167677500Y-96997742D01*
X168722500Y-97472258D02*
X168722500Y-96997742D01*
%TO.C,C3*%
X145784420Y-74890000D02*
X146065580Y-74890000D01*
X145784420Y-75910000D02*
X146065580Y-75910000D01*
%TO.C,SW1*%
X131850000Y-67210000D02*
X131850000Y-66750000D01*
X131850000Y-70450000D02*
X131850000Y-69990000D01*
X131850000Y-70450000D02*
X138050000Y-70450000D01*
X138050000Y-66750000D02*
X131850000Y-66750000D01*
X138050000Y-67210000D02*
X138050000Y-66750000D01*
X138050000Y-69990000D02*
X139050000Y-69990000D01*
X138050000Y-70450000D02*
X138050000Y-69990000D01*
X136450000Y-69150000D02*
X133600000Y-69150000D01*
X133600000Y-68100000D01*
X136450000Y-68100000D01*
X136450000Y-69150000D01*
%TO.C,C18*%
X165118750Y-105365670D02*
X165118750Y-105646830D01*
X166138750Y-105365670D02*
X166138750Y-105646830D01*
%TO.C,C4*%
X157439420Y-77070000D02*
X157720580Y-77070000D01*
X157439420Y-78090000D02*
X157720580Y-78090000D01*
%TO.C,C27*%
X158519420Y-78670000D02*
X158800580Y-78670000D01*
X158519420Y-79690000D02*
X158800580Y-79690000D01*
%TO.C,R7*%
X151977500Y-67462742D02*
X151977500Y-67937258D01*
X153022500Y-67462742D02*
X153022500Y-67937258D01*
%TO.C,D2*%
X174812500Y-88740000D02*
X174012500Y-88740000D01*
X174812500Y-88740000D02*
X175612500Y-88740000D01*
X174812500Y-91860000D02*
X174012500Y-91860000D01*
X174812500Y-91860000D02*
X175612500Y-91860000D01*
X173512500Y-88790000D02*
X173272500Y-88460000D01*
X173752500Y-88460000D01*
X173512500Y-88790000D01*
G36*
X173512500Y-88790000D02*
G01*
X173272500Y-88460000D01*
X173752500Y-88460000D01*
X173512500Y-88790000D01*
G37*
%TO.C,R11*%
X143172742Y-97507500D02*
X143647258Y-97507500D01*
X143172742Y-98552500D02*
X143647258Y-98552500D01*
%TO.C,C24*%
X173540000Y-70140580D02*
X173540000Y-69859420D01*
X174560000Y-70140580D02*
X174560000Y-69859420D01*
%TO.C,C21*%
X162908318Y-97074420D02*
X162908318Y-97355580D01*
X163928318Y-97074420D02*
X163928318Y-97355580D01*
%TO.C,R3*%
X140377500Y-67462742D02*
X140377500Y-67937258D01*
X141422500Y-67462742D02*
X141422500Y-67937258D01*
%TO.C,C16*%
X175632317Y-100678032D02*
X175913477Y-100678032D01*
X175632317Y-101698032D02*
X175913477Y-101698032D01*
%TO.C,U2*%
X161310000Y-87320000D02*
X161310000Y-87845000D01*
X161310000Y-87320000D02*
X161835000Y-87320000D01*
X161310000Y-91095000D02*
X161310000Y-91320000D01*
X161775000Y-91620000D02*
X161550000Y-91620000D01*
X165610000Y-87320000D02*
X165085000Y-87320000D01*
X165610000Y-87320000D02*
X165610000Y-87845000D01*
X165610000Y-91620000D02*
X165085000Y-91620000D01*
X165610000Y-91620000D02*
X165610000Y-91095000D01*
X161310000Y-91620000D02*
X160980000Y-91860000D01*
X160980000Y-91380000D01*
X161310000Y-91620000D01*
G36*
X161310000Y-91620000D02*
G01*
X160980000Y-91860000D01*
X160980000Y-91380000D01*
X161310000Y-91620000D01*
G37*
%TO.C,J6*%
X170590000Y-61870000D02*
X171920000Y-61870000D01*
X170590000Y-63200000D02*
X170590000Y-61870000D01*
X173190000Y-61870000D02*
X178330000Y-61870000D01*
X173190000Y-64530000D02*
X173190000Y-61870000D01*
X173190000Y-64530000D02*
X178330000Y-64530000D01*
X178330000Y-64530000D02*
X178330000Y-61870000D01*
%TO.C,C13*%
X157197500Y-68257164D02*
X157197500Y-68472836D01*
X157917500Y-68257164D02*
X157917500Y-68472836D01*
%TD*%
M02*
